<?xml version="1.0" encoding="UTF-8" standalone="no"?>
<svg
   version="1.1"
   viewBox="0 0 149.20042 150.49804"
   enable-background="new 0 0 273.567 273.567"
   id="svg6"
   sodipodi:docname="cupcake_icon.svg"
   width="149.20041"
   height="150.49803"
   inkscape:version="1.1.2 (b8e25be833, 2022-02-05)"
   xmlns:inkscape="http://www.inkscape.org/namespaces/inkscape"
   xmlns:sodipodi="http://sodipodi.sourceforge.net/DTD/sodipodi-0.dtd"
   xmlns="http://www.w3.org/2000/svg"
   xmlns:svg="http://www.w3.org/2000/svg">
  <defs
     id="defs10" />
  <sodipodi:namedview
     id="namedview8"
     pagecolor="#ffffff"
     bordercolor="#666666"
     borderopacity="1.0"
     inkscape:pageshadow="2"
     inkscape:pageopacity="0.0"
     inkscape:pagecheckerboard="0"
     showgrid="false"
     inkscape:zoom="1.8606046"
     inkscape:cx="131.94636"
     inkscape:cy="94.861637"
     inkscape:window-width="1280"
     inkscape:window-height="738"
     inkscape:window-x="-8"
     inkscape:window-y="-8"
     inkscape:window-maximized="1"
     inkscape:current-layer="g4" />
  <g
     id="g4"
     transform="translate(-4.9438388,-4.8372136)">
    <path
       d="m 154.14425,71.092914 c 0,-14.359555 -12.59451,-21.060718 -27.12709,-28.719111 C 113.94773,34.993227 97.3323,26.635615 84.863065,8.9164032 84.543483,8.0449935 83.991176,7.3276209 83.216164,6.7147734 82.014672,4.1588584 77.528844,4.1874653 75.669261,6.954081 63.0742,26.099787 45.634758,34.71541 32.070933,42.374353 17.538899,50.032196 4.9438388,56.733359 4.9438388,71.092914 c 0,12.990274 2.2281598,20.294382 10.0178112,24.401672 l 9.359162,40.694944 c 1.93753,11.48786 12.594503,19.14571 24.220798,19.14571 h 61.0361 c 11.62629,0 21.3145,-7.6584 24.2208,-19.14571 l 9.25226,-40.235037 c 8.60364,-4.011561 11.09348,-11.334925 11.09348,-24.861579 z m -50.97988,19.97861 C 94.648153,90.602256 72.510752,88.276301 60.167905,76.836296 56.292845,73.964605 54.354758,69.177903 54.354758,64.39175 53.521843,51.975814 64.256205,36.716241 72.820868,26.004064 c 1.317299,-1.349474 2.606202,-2.776518 3.885083,-4.260224 2.993707,20.246522 13.776508,60.855094 55.155589,63.708073 3.17799,0.392252 6.1227,0.19145 8.84527,-0.315772 -3.94354,4.346598 -13.72863,5.600898 -37.54244,5.935383 z M 121.204,50.989977 c 14.53259,7.658392 22.28327,11.487864 22.28327,20.103487 0,1.215793 0,2.355116 -0.0195,3.427324 -2.29609,1.273007 -6.40388,1.359377 -10.63749,1.359377 -31.06064,-1.962322 -41.815042,-30.17421 -45.535325,-48.841302 11.73208,11.649603 24.424015,18.484448 33.909005,23.951114 z m -85.25745,0 c 4.475806,-2.210983 9.281215,-4.681076 14.183501,-7.543415 -3.245363,6.892608 -5.464058,14.081738 -5.464058,20.945739 0,7.658393 2.906295,14.359553 8.719443,19.14571 3.100605,3.063683 6.762425,5.551931 10.666995,7.619882 C 13.808597,90.90923 13.663839,88.669098 13.663839,71.092914 13.663282,62.47729 21.414517,58.647819 35.94655,50.989977 Z m 88.16375,83.284543 c -0.77501,5.37039 -5.30928,9.37205 -10.5601,10.8079 l 4.74695,-32.8253 c 0.96877,-2.87169 -0.96876,-5.74393 -3.87506,-5.74393 -2.90629,-0.95723 -5.81315,0.95723 -5.81315,3.82891 l -5.12499,35.42028 h -9.184337 l 1.705369,-35.42028 c 0,-2.87168 -1.937538,-4.78669 -4.84439,-4.78669 -2.906293,0 -4.84438,1.91445 -4.84438,4.78669 l -1.705361,35.42028 H 74.418774 l -1.656365,-34.46249 c 0,-2.87169 -1.937531,-4.7867 -4.844382,-4.7867 -2.906296,0 -4.844384,1.91445 -4.844384,4.7867 l 1.656366,34.46249 h -8.999493 l -5.260841,-36.37695 c -0.968765,-1.91446 -2.906295,-3.82893 -5.813147,-3.82893 -1.937531,0.95724 -3.875061,2.8717 -3.875061,5.74394 l 4.911751,33.96517 C 40.200209,144.12629 35.655921,140.00085 33.999555,134.27562 L 25.83242,98.777769 c 11.296691,1.952971 28.26066,1.991481 53.702437,1.991481 8.961633,0 16.770216,-0.01 23.765363,-0.0957 1.947,0.0863 3.18746,0.0957 3.36173,0.0957 0.33907,0 0.62023,-0.11497 0.93035,-0.16283 10.21157,-0.19144 18.29129,-0.650811 24.62779,-1.655908 z"
       id="path2"
       style="fill:#0066ff;stroke-width:0.553437" />
  </g>
</svg>
